<?xml version="1.0" encoding="UTF-8"?>
<svg id="Layer_1" data-name="Layer 1" xmlns="http://www.w3.org/2000/svg" viewBox="0 0 171.56 271.11">
  <defs>
    <style>
      .cls-1 {
        fill: #868685;
      }

      .cls-1, .cls-2 {
        fill-rule: evenodd;
      }

      .cls-3 {
        fill: #575656;
      }

      .cls-2 {
        fill: #eb6801;
      }
    </style>
  </defs>
  <g>
    <polygon class="cls-2" points="6.37 40.13 71.72 3.58 161.58 52.08 161.58 151.2 94 187.04 94 88.64 6.37 40.13"/>
    <path class="cls-3" d="M92.36,189.77v-100.17L3,40.14,71.71,1.71l91.51,49.39v101.08l-70.86,37.59ZM9.74,40.13l85.9,47.54v96.65l64.3-34.11V53.06L71.74,5.45,9.74,40.13Z"/>
  </g>
  <g>
    <polygon class="cls-1" points="14.29 241.15 14.29 135.81 77.7 102.27 77.7 154.28 77.7 267.32 67.01 267.32 14.29 241.15"/>
    <path class="cls-3" d="M79.34,268.96h-12.71l-53.98-26.79v-107.34l66.69-35.28v169.41ZM67.4,265.68h8.67V104.99l-60.14,31.81v103.33l51.47,25.54Z"/>
  </g>
</svg>