<?xml version="1.0" encoding="UTF-8"?>
<svg id="Layer_1" data-name="Layer 1" xmlns="http://www.w3.org/2000/svg" viewBox="0 0 616.06 376.56">
  <defs>
    <style>
      .cls-1 {
        fill: #808285;
      }

      .cls-1, .cls-2 {
        fill-rule: evenodd;
      }

      .cls-2 {
        fill: #f37121;
      }

      .cls-3 {
        fill: #58595b;
      }

      .cls-4 {
        fill: #414042;
        font-family: Arial-BoldMT, Arial;
        font-size: 62.8px;
        font-weight: 700;
      }

      .cls-5 {
        fill: #6d6e71;
        font-family: EngraversGothicBT-Regular, 'EngraversGothic BT';
        font-size: 34.47px;
      }

      .cls-6 {
        letter-spacing: 0em;
      }

      .cls-7 {
        letter-spacing: 0em;
      }

      .cls-8 {
        letter-spacing: -.07em;
      }

      .cls-9 {
        letter-spacing: -.02em;
      }

      .cls-10 {
        letter-spacing: -.02em;
      }
    </style>
  </defs>
  <g>
    <g>
      <polygon class="cls-2" points="259.71 61.91 301.01 38.81 357.8 69.46 357.8 132.1 315.09 154.75 315.09 92.56 259.71 61.91"/>
      <path class="cls-3" d="M313.72,157.03v-63.66l-56.83-31.45,44.11-24.67,58.17,31.4v64.28l-45.45,24.11ZM262.52,61.9l53.93,29.85v60.72l39.97-21.2v-61l-55.41-29.91-38.5,21.53Z"/>
    </g>
    <g>
      <polygon class="cls-1" points="264.71 188.95 264.71 122.38 304.79 101.18 304.79 134.05 304.79 205.49 298.03 205.49 264.71 188.95"/>
      <path class="cls-3" d="M306.16,206.86h-8.45l-34.37-17.06v-68.25l42.82-22.65v107.95ZM298.35,204.12h5.06v-100.66l-37.34,19.75v64.9l32.28,16.02Z"/>
    </g>
  </g>
  <text class="cls-4" transform="translate(35.33 281.17)"><tspan x="0" y="0">PR</tspan><tspan class="cls-8" x="87.23" y="0">A</tspan><tspan x="127.92" y="0">THAM </tspan><tspan class="cls-9" x="326.74" y="0">T</tspan><tspan class="cls-7" x="363.96" y="0">OURS</tspan></text>
  <text class="cls-5" transform="translate(133.23 315.34) scale(.82 1)"><tspan x="0" y="0">YOUR HAPPINESS OUR G</tspan><tspan class="cls-10" x="367.15" y="0">O</tspan><tspan class="cls-6" x="388.39" y="0">AL</tspan></text>
</svg>