<?xml version="1.0" encoding="UTF-8"?>
<svg id="Layer_1" data-name="Layer 1" xmlns="http://www.w3.org/2000/svg" viewBox="0 0 447.1 88.34">
  <defs>
    <style>
      .cls-1 {
        fill: #58595b;
      }

      .cls-2 {
        letter-spacing: .18em;
      }

      .cls-3 {
        letter-spacing: .2em;
      }

      .cls-4 {
        fill: #6d6e70;
        font-family: EngraversGothicBT-Regular, 'EngraversGothic BT';
        font-size: 26.48px;
      }

      .cls-5 {
        fill: #404041;
        font-family: Arial-BoldMT, Arial;
        font-size: 42.75px;
        font-weight: 700;
      }

      .cls-6 {
        fill: #f27121;
      }

      .cls-6, .cls-7 {
        fill-rule: evenodd;
      }

      .cls-8 {
        letter-spacing: -.07em;
      }

      .cls-9 {
        letter-spacing: -.02em;
      }

      .cls-7 {
        fill: #808184;
      }
    </style>
  </defs>
  <g>
    <g>
      <polygon class="cls-6" points="1.47 12.85 22.98 .81 52.56 16.78 52.56 49.4 30.31 61.2 30.31 28.81 1.47 12.85"/>
      <path class="cls-1" d="M29.6,62.39V29.23L0,12.85,22.97,0l30.3,16.35v33.48l-23.67,12.56ZM2.94,12.84l28.09,15.55v31.63l20.82-11.04v-31.77L22.99,1.63,2.94,12.84Z"/>
    </g>
    <g>
      <polygon class="cls-7" points="4.07 79.01 4.07 44.34 24.95 33.3 24.95 50.42 24.95 87.63 21.43 87.63 4.07 79.01"/>
      <path class="cls-1" d="M25.66,88.34h-4.4l-17.9-8.88v-35.54l22.3-11.8v56.23ZM21.6,86.91h2.64v-52.43l-19.45,10.29v33.8l16.81,8.34Z"/>
    </g>
  </g>
  <g>
    <text class="cls-5" transform="translate(75.85 48.14)"><tspan x="0" y="0">PR</tspan><tspan class="cls-8" x="59.38" y="0">A</tspan><tspan x="87.08" y="0">THAM </tspan><tspan class="cls-9" x="222.41" y="0">T</tspan><tspan x="247.75" y="0">OURS</tspan></text>
    <text class="cls-4" transform="translate(78.16 70.62) scale(.82 1)"><tspan class="cls-3" x="0" y="0">YOUR HAPPINESS OUR G</tspan><tspan class="cls-2" x="388" y="0">O</tspan><tspan class="cls-3" x="409.61" y="0">AL</tspan></text>
  </g>
</svg>